<svg width="30" height="34" viewBox="0 0 30 34" fill="none" xmlns="http://www.w3.org/2000/svg">
<path fill-rule="evenodd" clip-rule="evenodd" d="M29.7225 8.5L15 0L0.277588 8.5V25.5L15 34L29.7225 25.5V8.5ZM2.00002 9.53097L14.9867 1.99988L27.9773 9.52731V24.4514L15.0086 31.9499L2.00002 24.4551V9.53097ZM8.65291 24.9645L9.81764 25.6344L9.81797 8.68638L8.17271 9.58921L8.15807 17.3067C7.5807 15.4461 6.25059 11.1476 6.25059 11.0451L4.88188 11.8168V22.7952L6.25059 23.5815V15.9589L8.65291 24.9645ZM18.5101 17.9176V16.0102H12.7587V8.54096L14.9903 7.27407L18.8738 9.53097L19.762 8.14795L14.9903 5.35228L11.2153 7.60918V26.3622L12.7587 27.3815V17.9176H18.5101ZM23.4312 12.2391L25.5424 13.6807L25.5427 11.8751L20.5194 8.70102L19.6748 9.96791L21.7278 11.3073V25.0374L23.4312 24.091V12.2391Z" fill="white"/>
</svg>
