<svg width="640" height="184" viewBox="0 0 640 184" fill="none" xmlns="http://www.w3.org/2000/svg">
<path d="M583.853 148.2C614.253 148.2 639.053 123.6 639.053 92.9998C639.053 62.5998 614.253 37.7998 583.853 37.7998C553.453 37.7998 528.653 62.5998 528.653 92.9998C528.653 123.6 553.453 148.2 583.853 148.2ZM583.853 124.2C566.653 124.2 552.653 110.4 552.653 92.9998C552.653 75.7998 566.653 61.7998 583.853 61.7998C601.053 61.7998 615.053 75.7998 615.053 92.9998C615.053 110.4 601.053 124.2 583.853 124.2Z" fill="white"/>
<path d="M521.009 146V121.4C510.009 121.4 504.409 112.6 504.409 100.4V0H480.409V100.8C480.409 127 496.209 146 521.009 146Z" fill="white"/>
<path d="M411.169 150.8C441.569 150.8 466.369 126 466.369 95.5999C466.369 65.1999 441.569 40.3999 411.169 40.3999C380.569 40.3999 355.969 65.1999 355.969 95.5999V183.6H379.969V134.6C386.369 144.2 398.169 150.8 411.169 150.8ZM411.169 64.3999C428.369 64.3999 442.369 78.3999 442.369 95.5999C442.369 112.8 428.369 126.8 411.169 126.8C393.769 126.8 379.969 112.8 379.969 95.5999C379.969 78.3999 393.769 64.3999 411.169 64.3999Z" fill="white"/>
<path d="M286.564 148.2C316.964 148.2 341.764 123.6 341.764 93C341.764 62.6 316.964 37.8 286.564 37.8C256.164 37.8 231.364 62.6 231.364 93C231.364 123.6 256.164 148.2 286.564 148.2ZM286.564 124.2C269.364 124.2 255.364 110.4 255.364 93C255.364 75.8 269.364 61.8 286.564 61.8C303.764 61.8 317.764 75.8 317.764 93C317.764 110.4 303.764 124.2 286.564 124.2Z" fill="white"/>
<path d="M222.094 146.8V122.8C207.694 122.8 191.094 120.8 191.094 98.2V63.8H216.894V39.8H191.094V17.8H167.094V39.8H157.294V63.8H167.094V103.6C167.094 141.2 200.294 146.8 222.094 146.8Z" fill="white"/>
<path fill-rule="evenodd" clip-rule="evenodd" d="M18.7961 126.124C19.4457 126.828 20.1121 127.521 20.7954 128.205C48.5226 155.932 93.4774 155.932 121.205 128.205C148.932 100.477 148.932 55.5226 121.205 27.7954C120.521 27.1121 119.828 26.4457 119.124 25.7961L18.7961 126.124ZM112.921 20.6849L13.6849 119.921C11.9578 117.566 10.3941 115.129 8.99399 112.624L105.624 15.994C108.129 17.3941 110.566 18.9578 112.921 20.6849ZM97.9931 12.3114C95.0548 11.1054 92.0521 10.1047 89.0067 9.3095L2.3095 96.0067C3.10474 99.0521 4.10537 102.055 5.31137 104.993L97.9931 12.3114ZM0.50704 86.4955L79.4955 7.50704C75.6634 7.04784 71.8011 6.90055 67.9496 7.06515L0.0651524 74.9496C-0.0994527 78.8011 0.0478432 82.6634 0.50704 86.4955ZM1.85134 61.8497L54.8497 8.85134C42.3698 11.7536 30.5225 18.0683 20.7954 27.7954C11.0683 37.5225 4.75364 49.3698 1.85134 61.8497Z" fill="white"/>
<circle cx="93" cy="100" r="19" fill="#FF1E6F"/>
</svg>
