<svg width="200" height="200" viewBox="0 0 200 200" fill="none" xmlns="http://www.w3.org/2000/svg">
<rect opacity="0.2" width="200" height="200" rx="100" fill="#8E8F8F"/>
<path opacity="0.3" fill-rule="evenodd" clip-rule="evenodd" d="M6 100C6 151.915 48.0852 194 100 194C151.915 194 194 151.915 194 100C194 48.0852 151.915 6 100 6C48.0852 6 6 48.0852 6 100ZM100 0C44.7715 0 0 44.7715 0 100C0 155.228 44.7715 200 100 200C155.228 200 200 155.228 200 100C200 44.7715 155.228 0 100 0Z" fill="white"/>
<rect opacity="0.2" x="21" y="21" width="158" height="158" rx="79" fill="#8E8F8F"/>
<path opacity="0.2" fill-rule="evenodd" clip-rule="evenodd" d="M31 100C31 138.108 61.8924 169 100 169C138.108 169 169 138.108 169 100C169 61.8924 138.108 31 100 31C61.8924 31 31 61.8924 31 100ZM100 21C56.3695 21 21 56.3695 21 100C21 143.63 56.3695 179 100 179C143.63 179 179 143.63 179 100C179 56.3695 143.63 21 100 21Z" fill="white" fill-opacity="0.5"/>
<path d="M102 50L119.34 76.134L149.553 84.5491L130.056 109.116L131.389 140.451L102 129.5L72.6107 140.451L73.9438 109.116L54.4472 84.5491L84.6603 76.134L102 50Z" fill="#D9D9D9" fill-opacity="0.5"/>
</svg>
